<?xml version="1.0" encoding="UTF-8" standalone="no"?>
<!-- Created with Inkscape (http://www.inkscape.org/) -->

<svg
   xmlns:dc="http://purl.org/dc/elements/1.1/"
   xmlns:cc="http://creativecommons.org/ns#"
   xmlns:rdf="http://www.w3.org/1999/02/22-rdf-syntax-ns#"
   xmlns:svg="http://www.w3.org/2000/svg"
   xmlns="http://www.w3.org/2000/svg"
   xmlns:sodipodi="http://sodipodi.sourceforge.net/DTD/sodipodi-0.dtd"
   xmlns:inkscape="http://www.inkscape.org/namespaces/inkscape"
   width="200"
   height="200"
   id="svg3784"
   version="1.1"
   inkscape:version="0.48.5 r10040"
   sodipodi:docname="New document 4">
  <defs
     id="defs3786" />
  <sodipodi:namedview
     id="base"
     pagecolor="#ffffff"
     bordercolor="#666666"
     borderopacity="1.0"
     inkscape:pageopacity="0.0"
     inkscape:pageshadow="2"
     inkscape:zoom="0.98994949"
     inkscape:cx="246.81088"
     inkscape:cy="257.07107"
     inkscape:document-units="px"
     inkscape:current-layer="layer1"
     showgrid="false"
     inkscape:window-width="1920"
     inkscape:window-height="1017"
     inkscape:window-x="-8"
     inkscape:window-y="-8"
     inkscape:window-maximized="1" />
  <metadata
     id="metadata3789">
    <rdf:RDF>
      <cc:Work
         rdf:about="">
        <dc:format>image/svg+xml</dc:format>
        <dc:type
           rdf:resource="http://purl.org/dc/dcmitype/StillImage" />
        <dc:title></dc:title>
      </cc:Work>
    </rdf:RDF>
  </metadata>
  <g
     inkscape:label="Layer 1"
     inkscape:groupmode="layer"
     id="layer1"
     transform="translate(0,-852.36218)">
    <path
       style="fill:#f25f23;fill-opacity:1"
       d="m 25.365829,1039.6913 c -2.921913,-1.1234 -5.734907,-3.8097 -7.285518,-6.9575 l -1.290431,-2.6197 -0.126474,-10.7281 c -0.144455,-12.2526 0.07954,-13.7111 2.548546,-16.5956 0.812688,-0.9495 2.355286,-2.128 3.456391,-2.6407 1.922297,-0.89518 2.3201,-0.92618 11.920901,-0.92988 l 9.932241,0 0,9.22188 c 0,9.1352 0.0087,9.2321 0.932415,10.3059 1.248647,1.4517 3.393108,1.5002 4.784953,0.1084 l 0.975646,-0.9757 0.04044,-9.3303 0.04035,-9.33018 10.380565,0 10.380565,0 0,5.32978 c 0,6.1496 0.368624,7.3221 2.52589,8.034 1.106606,0.3653 1.581329,0.334 2.551991,-0.1679 0.655878,-0.3392 1.374756,-0.9572 1.597511,-1.3734 0.222764,-0.4163 0.405017,-3.2467 0.405017,-6.2897 l 0,-5.53278 48.087783,0 48.08778,0 1.98865,0.92598 c 1.10112,0.5127 2.64372,1.6913 3.4564,2.6408 2.46903,2.8845 2.693,4.3429 2.54855,16.5956 l -0.12647,10.7281 -1.29044,2.6196 c -1.57691,3.2013 -4.38504,5.8497 -7.39718,6.9767 -2.15008,0.8045 -2.46501,0.8078 -74.620293,0.7874 -71.471901,-0.02 -72.489015,-0.032 -74.50577,-0.8068 z m 146.799711,-6.6035 c 1.8203,-0.8401 3.11405,-2.1328 3.71068,-3.7074 0.25727,-0.679 0.41955,-4.989 0.41955,-11.1425 l 0,-10.0353 -1.1498,-1.1498 -1.14982,-1.1498 -43.83268,0 -43.832689,0 -0.226008,2.9884 c -0.393028,5.1967 -2.832647,8.7861 -6.917651,10.1781 -5.159602,1.758 -10.528513,-0.5332 -12.878699,-5.4961 -0.71124,-1.5019 -0.93229,-2.6408 -0.935219,-4.8186 l -0.0042,-2.8518 -3.507718,0 -3.50771,0 -0.132133,6.7854 c -0.14487,7.4398 -0.345902,8.211 -2.828719,10.8517 -2.131332,2.2669 -3.965361,2.9996 -7.528067,3.0073 -2.731356,0.01 -3.389722,-0.136 -4.986334,-1.0746 -4.357864,-2.5618 -5.437603,-5.2903 -5.437603,-13.7409 l 0,-5.8289 -5.733917,0 -5.733926,0 -1.149812,1.1498 -1.149812,1.1498 0,10.0353 c 0,6.1535 0.162285,10.4635 0.419561,11.1425 0.59663,1.5746 1.890372,2.8673 3.71068,3.7074 1.511206,0.6975 4.365652,0.7262 72.180844,0.7262 67.815192,0 70.669642,-0.028 72.180842,-0.7262 z M 26.820458,995.23742 c -1.189899,-0.1905 -3.640783,-1.0718 -5.446414,-1.9586 -5.390886,-2.6474 -9.133907,-7.1074 -10.840345,-12.917 -0.7148345,-2.4337 -0.8190195,-7.9626 -0.200641,-10.6476 1.6047,-6.96752 7.905619,-13.25099 15.190579,-15.14848 3.395031,-0.88429 145.527083,-0.88429 148.922103,0 7.28497,1.89749 13.58589,8.18096 15.19059,15.14848 0.61838,2.685 0.51418,8.2139 -0.20065,10.6476 -1.69568,5.773 -5.49227,10.2952 -10.83647,12.9078 -1.9704,0.9632 -4.31087,1.7656 -5.84364,2.0035 -3.21003,0.498 -142.814131,0.464 -145.935112,-0.036 z M 175.193,987.34832 c 2.86569,-1.3433 5.60271,-4.0848 6.92481,-6.9362 0.86161,-1.8583 1.04089,-2.8126 1.05032,-5.5913 0.0101,-3.0037 -0.12219,-3.6219 -1.27905,-5.97299 -1.56966,-3.18995 -4.33588,-5.80721 -7.48077,-7.0779 l -2.24277,-0.9062 -70.60742,-0.11301 c -50.404416,-0.0806 -71.338746,0.0119 -73.163331,0.32351 -4.728734,0.80758 -8.457128,3.69531 -10.558416,8.17776 -1.400449,2.98743 -1.469972,7.90923 -0.152842,10.81913 1.73858,3.841 4.562806,6.4403 8.468161,7.7939 1.945585,0.6743 5.581443,0.7047 74.423038,0.6213 l 72.37752,-0.088 2.24075,-1.0503 z M 45.414287,952.77867 c -2.976543,-0.58748 -5.10666,-1.82327 -8.315827,-4.82446 -2.56581,-2.39951 -3.496935,-3.02154 -5.004272,-3.34302 -1.018554,-0.21723 -2.046542,-0.33703 -2.284415,-0.26621 -0.237874,0.0708 -0.93888,0.24034 -1.557783,0.37672 -0.693626,0.15285 -2.664163,1.74518 -5.136954,4.15102 l -4.011679,3.90306 -2.448696,-2.47065 -2.448696,-2.47065 4.139543,-4.02747 c 5.359735,-5.21463 7.219247,-6.15129 12.211839,-6.15129 4.589064,0 6.840065,1.00328 10.896764,4.85675 3.097468,2.9423 4.269303,3.60041 6.410902,3.60041 2.113843,0 3.235991,-0.62195 6.426628,-3.56193 4.272,-3.93638 6.403316,-4.89523 10.881039,-4.89523 4.530507,0 7.001693,1.07212 10.748824,4.66333 3.023427,2.89763 4.571159,3.79383 6.551946,3.79383 2.243779,0 4.147438,-1.03037 6.890626,-3.72961 1.406248,-1.38372 3.530375,-3.01105 4.720273,-3.61629 1.918752,-0.97597 2.586137,-1.10044 5.900345,-1.10044 3.314206,0 3.981596,0.12447 5.900336,1.10044 1.18991,0.60524 3.31403,2.23257 4.72027,3.61629 2.7432,2.69924 4.64686,3.72961 6.89064,3.72961 1.98079,0 3.52852,-0.8962 6.55195,-3.79383 3.74713,-3.59121 6.21831,-4.66333 10.74882,-4.66333 4.47773,0 6.60903,0.95885 10.88104,4.89523 3.19063,2.93998 4.31278,3.56193 6.42662,3.56193 2.1416,0 3.31344,-0.65811 6.4109,-3.60041 4.05671,-3.85347 6.30771,-4.85675 10.89677,-4.85675 4.99259,0 6.8521,0.93666 12.21184,6.15129 l 4.13953,4.02747 -2.44869,2.47065 -2.44869,2.47065 -4.01168,-3.90306 c -2.47279,-2.40584 -4.44333,-3.99817 -5.13696,-4.15102 -0.6189,-0.13638 -1.3593,-0.32102 -1.64531,-0.41031 -0.28601,-0.0893 -1.32435,0.0402 -2.3074,0.28771 -1.36622,0.34402 -2.52476,1.13966 -4.91674,3.37662 -4.55964,4.26412 -8.33918,5.65251 -13.05808,4.79682 -3.28761,-0.59616 -4.96017,-1.55277 -8.49541,-4.85888 -2.33106,-2.18 -3.49011,-2.97203 -4.85037,-3.31456 -0.98305,-0.24753 -2.02138,-0.377 -2.30741,-0.28771 -0.28601,0.0893 -1.01717,0.27161 -1.62478,0.40516 -0.60761,0.13354 -2.49096,1.53917 -4.18522,3.12362 -3.42482,3.20286 -5.48044,4.3663 -8.79821,4.97963 -4.5041,0.83262 -8.73235,-0.73806 -13.15098,-4.88524 -3.25729,-3.05719 -4.04347,-3.48588 -6.392786,-3.48588 -2.34932,0 -3.1355,0.42869 -6.39279,3.48588 -4.418634,4.14718 -8.646878,5.71786 -13.150976,4.88524 -3.31777,-0.61333 -5.373388,-1.77677 -8.798213,-4.97963 -1.69425,-1.58445 -3.5776,-2.99008 -4.185212,-3.12362 -0.607613,-0.13355 -1.299384,-0.30075 -1.537257,-0.37157 -0.237873,-0.0708 -1.265861,0.049 -2.284406,0.26621 -1.501771,0.32029 -2.435392,0.94064 -4.937911,3.28097 -3.54283,3.31321 -5.204681,4.27034 -8.459159,4.87197 -2.572733,0.47558 -2.489756,0.47533 -4.824483,0.0146 z M 21.510153,936.08145 c -2.033595,-0.71906 -3.96036,-2.83026 -4.54753,-4.98284 -0.785031,-2.87796 -0.240094,-12.72542 0.964955,-17.43761 4.813808,-18.82373 23.887045,-34.93128 49.998591,-42.22435 10.893743,-3.04266 19.317932,-4.12718 32.058525,-4.12718 10.038416,0 15.704466,0.50711 23.798046,2.12995 25.95745,5.20469 46.5293,18.63288 55.09207,35.9611 2.99989,6.07079 4.09877,10.61189 4.37855,18.09438 0.15192,4.0633 0.0711,6.44701 -0.25944,7.65619 -0.60164,2.20056 -2.8339,4.49865 -4.93691,5.0825 -1.11775,0.31031 -23.46999,0.43005 -78.268996,0.41928 -65.085907,-0.0128 -76.942767,-0.0993 -78.277861,-0.57142 z M 176.28895,924.57663 c -0.0149,-10.93872 -3.22876,-18.48708 -11.57958,-27.19686 -13.98615,-14.58734 -38.08888,-23.24263 -64.724676,-23.24263 -26.777807,0 -50.782865,8.66565 -64.912474,23.43292 -5.104464,5.33484 -8.004287,10.04252 -10.032782,16.28762 -0.943531,2.90484 -1.11055,4.15638 -1.272926,9.53888 l -0.186895,6.19536 76.358077,0 76.358076,0 -0.007,-5.01529 z"
       id="path2987"
       inkscape:connector-curvature="0"
       inkscape:export-filename="C:\Users\Erik\Desktop\clustercast\app\assets\double.png"
       inkscape:export-xdpi="100.19353"
       inkscape:export-ydpi="100.19353" />
  </g>
</svg>
